<svg xmlns="http://www.w3.org/2000/svg" width="860" height="476" viewBox="0 0 860 476" fill="none"><path fill-rule="evenodd" clip-rule="evenodd" d="M393.399 94.7013C388.8 101.569 382.556 107.73 374.287 113.013C366.925 88.7433 389.254 66.7613 405.001 51.1133C403.509 67.4653 403.058 80.2793 393.399 94.7013Z" fill="#7D8D19"></path><path fill-rule="evenodd" clip-rule="evenodd" d="M338.487 94.7013C343.086 101.569 349.33 107.73 357.599 113.013C364.961 88.7433 342.632 66.7613 326.885 51.1133C328.377 67.4653 328.827 80.2793 338.487 94.7013Z" fill="#7D8D19"></path><path fill-rule="evenodd" clip-rule="evenodd" d="M367.823 183.04C376.66 183.972 383.548 191.449 383.548 200.533C383.548 210.249 375.671 218.126 365.956 218.126C356.24 218.126 348.363 210.249 348.363 200.533C348.363 191.458 355.237 183.987 364.063 183.043V140.589C347.06 112.92 329.56 108.653 302.331 107.916C302.137 110.27 301.717 112.312 301.08 114.043C297.355 124.17 282.437 121.935 273.697 131.779C268.086 120.024 268.598 110.762 277.197 104.794C267.643 100.516 265.429 91.5088 268.772 78.9208C279.18 86.9808 293.428 82.0278 298.96 91.2918C300.576 93.9978 301.731 97.7048 302.406 102.445C302.429 102.965 302.444 103.473 302.452 103.972C329.966 104.743 347.31 108.461 364.063 133.497V39.5308C359.446 39.1598 355.708 38.2768 352.823 36.8998C341.641 31.5618 345.786 14.7428 335.462 3.69977C349.499 -1.46223 360.034 0.109765 365.943 10.5778C371.852 0.109765 382.387 -1.46223 396.424 3.69977C386.1 14.7428 390.245 31.5608 379.063 36.8998C376.178 38.2768 372.44 39.1608 367.823 39.5308V133.497C384.576 108.46 401.919 104.742 429.434 103.972C429.442 103.474 429.457 102.965 429.48 102.445C430.155 97.7048 431.31 93.9978 432.926 91.2918C438.458 82.0278 452.706 86.9808 463.114 78.9208C466.457 91.5088 464.242 100.516 454.689 104.794C463.288 110.762 463.8 120.024 458.189 131.779C449.449 121.935 434.531 124.17 430.806 114.043C430.169 112.312 429.75 110.269 429.555 107.916C402.326 108.653 384.826 112.92 367.823 140.589V183.04ZM365.943 193.962C369.559 193.962 372.489 196.893 372.489 200.508C372.489 204.123 369.558 207.054 365.943 207.054C362.328 207.054 359.397 204.123 359.397 200.508C359.397 196.893 362.327 193.962 365.943 193.962Z" fill="#7D8D19"></path><path d="M153.727 398.462V401.983H100.913V387.899C97.1574 391.89 93.1664 395.41 88.9414 398.462C85.1864 401.044 80.7264 403.45 75.5624 405.68C70.3974 407.91 64.7644 409.026 58.6614 409.026C50.2114 409.026 42.4654 407.558 35.4234 404.625C28.3824 401.691 22.2794 397.7 17.1144 392.654C11.9504 387.607 7.90141 381.68 4.96741 374.873C2.03341 368.065 0.566406 360.672 0.566406 352.691C0.566406 344.71 2.03341 337.317 4.96741 330.509C7.90141 323.702 11.9504 317.775 17.1144 312.729C22.2794 307.682 28.3824 303.692 35.4234 300.758C42.4654 297.824 50.2124 296.357 58.6614 296.357C64.7644 296.357 70.3974 297.061 75.5624 298.469C80.7264 299.878 85.1864 301.52 88.9414 303.399C93.1664 305.511 97.1564 307.858 100.912 310.441V238.261C98.7994 236.618 96.3354 235.21 93.5184 234.036C90.9364 232.863 87.9434 231.806 84.5404 230.867C81.1364 229.928 77.2054 229.458 72.7454 229.458C65.9384 229.458 59.6594 230.573 53.9084 232.803C48.1574 235.033 42.9354 237.439 38.2404 240.021C32.8414 243.072 27.9124 246.593 23.4524 250.584V245.302C27.9124 241.781 32.8414 238.612 38.2404 235.795C42.9344 233.213 48.1574 230.925 53.9084 228.93C59.6594 226.935 65.9394 225.938 72.7454 225.938C81.4304 225.938 89.6454 227.64 97.3924 231.044C105.138 234.447 111.886 239.317 117.637 245.656C123.388 251.993 127.907 259.739 131.192 268.893C134.479 278.047 136.122 288.376 136.122 299.878V398.464L153.727 398.462ZM58.6624 405.505C64.7654 405.505 70.3984 404.331 75.5634 401.983C80.7274 399.635 85.1874 397.053 88.9424 394.237C93.1674 390.95 97.1574 387.078 100.913 382.618V315.72C97.1574 312.903 93.1664 310.321 88.9414 307.974C85.1864 306.096 80.7264 304.277 75.5624 302.516C70.3974 300.756 64.7644 299.876 58.6614 299.876C56.0794 299.876 53.4974 300.052 50.9154 300.404C48.3334 300.756 46.1034 301.167 44.2254 301.636C41.8774 302.341 39.6484 302.927 37.5354 303.397V401.63C37.5354 401.865 39.7064 402.569 44.0484 403.742C48.3934 404.918 53.2644 405.505 58.6624 405.505Z" fill="#7D8D19"></path><path d="M278.32 225.938C290.761 225.938 300.033 228.578 306.135 233.859C312.238 239.141 315.289 245.302 315.289 252.344C315.289 258.447 313 263.788 308.423 268.365C303.846 272.942 298.506 275.23 292.403 275.23C286.3 275.23 280.96 272.942 276.383 268.365C271.806 263.788 269.517 258.447 269.517 252.344C269.517 246.945 271.512 242.31 275.503 238.436C279.493 234.563 284.539 232.158 290.642 231.219C289.234 230.985 287.826 230.748 286.417 230.514C285.244 230.28 283.894 230.044 282.368 229.81C280.842 229.575 279.492 229.458 278.319 229.458C272.216 229.458 266.583 230.867 261.419 233.683C256.255 236.5 251.795 239.552 248.039 242.837C243.814 246.828 239.824 251.17 236.068 255.865V398.464H253.673V401.984H183.254V398.464H200.858V236.5H183.254V232.979H236.068V250.584C239.823 246.124 243.814 242.016 248.039 238.26C251.795 235.209 256.255 232.392 261.419 229.81C266.584 227.228 272.217 225.938 278.32 225.938Z" fill="#7D8D19"></path><path d="M401.153 398.463V401.984H330.734V398.463H348.338V236.501H330.734V232.98H383.548V398.463H401.153Z" fill="#7D8D19"></path><path d="M487.015 409.024C475.513 409.024 465.772 407.029 457.791 403.038C449.81 399.047 443.238 394.587 438.074 389.659C431.971 384.026 427.16 377.57 423.639 370.294V363.252C427.16 371.232 431.971 378.274 438.074 384.377C443.238 389.776 449.81 394.647 457.791 398.989C465.772 403.331 475.513 405.502 487.015 405.502C498.516 405.502 507.847 401.922 515.006 394.763C522.166 387.604 525.745 378.273 525.745 366.772C525.745 360.903 523.456 355.974 518.879 351.983C514.302 347.993 508.551 344.237 501.626 340.716C494.701 337.195 487.191 333.674 479.092 330.153C470.994 326.632 463.482 322.466 456.558 317.654C449.634 312.842 443.883 307.091 439.305 300.401C434.728 293.711 432.439 285.32 432.439 275.227C432.439 269.124 433.907 263.08 436.84 257.094C439.774 251.108 443.999 245.827 449.515 241.25C455.031 236.673 461.721 232.976 469.585 230.159C477.448 227.343 486.192 225.934 495.816 225.934C503.327 225.934 510.193 227.107 516.413 229.455C522.633 231.803 528.032 234.795 532.609 238.433C537.186 242.071 540.707 246.062 543.172 250.404C545.637 254.746 546.869 258.913 546.869 262.903C546.869 269.006 544.874 274.053 540.883 278.043C536.892 282.034 531.846 284.029 525.743 284.029C519.64 284.029 514.593 282.034 510.603 278.043C506.613 274.053 504.617 269.006 504.617 262.903C504.617 257.504 506.612 252.927 510.603 249.171C514.594 245.415 519.64 243.538 525.743 243.538C526.682 243.538 527.621 243.655 528.56 243.89C529.498 244.125 530.437 244.36 531.376 244.595C532.315 244.829 533.371 245.065 534.545 245.299C531.729 242.483 528.325 239.901 524.334 237.553C521.048 235.675 516.999 233.856 512.187 232.096C507.375 230.335 501.917 229.455 495.815 229.455C483.375 229.455 473.809 232.683 467.119 239.138C460.429 245.592 457.085 254.102 457.085 264.664C457.085 270.533 459.374 275.462 463.951 279.452C468.528 283.442 474.279 287.199 481.204 290.72C488.128 294.241 495.639 297.762 503.738 301.283C511.836 304.803 519.348 308.97 526.272 313.782C533.196 318.594 538.947 324.403 543.525 331.211C548.102 338.018 550.391 346.35 550.391 356.209C550.391 363.251 548.923 369.941 545.989 376.278C543.056 382.616 538.83 388.249 533.315 393.179C527.799 398.108 521.108 401.981 513.245 404.798C505.382 407.616 496.639 409.024 487.015 409.024Z" fill="#7D8D19"></path><path d="M671.461 377.336C669.583 386.256 665.475 393.768 659.138 399.87C652.8 405.973 645.172 409.024 636.253 409.024C630.854 409.024 625.63 407.733 620.583 405.151C615.536 402.569 611.077 398.872 607.204 394.06C603.331 389.248 600.162 383.38 597.697 376.455C595.232 369.531 594 361.608 594 352.689V236.5H576.396V232.979H594V190.728L629.21 159.039V232.979H657.378V236.5H629.21V403.744C629.679 404.213 630.383 404.566 631.322 404.801C633.2 405.27 634.844 405.505 636.253 405.505C644.233 405.505 651.04 402.806 656.673 397.407C662.306 392.008 666.063 385.318 667.94 377.337L671.461 377.336Z" fill="#7D8D19"></path><path d="M776.69 405.505C782.793 405.505 788.426 404.801 793.59 403.393C798.754 401.985 803.214 400.34 806.969 398.462C811.195 396.35 815.185 394.002 818.941 391.42V243.542C815.186 240.96 811.195 238.612 806.969 236.5C803.214 234.622 798.754 232.979 793.59 231.57C788.426 230.161 782.793 229.458 776.69 229.458C770.587 229.458 764.954 230.162 759.789 231.57C754.625 232.979 750.166 234.621 746.41 236.5C742.185 238.612 738.195 240.96 734.439 243.542V391.42C738.194 394.002 742.185 396.35 746.41 398.462C750.166 400.34 754.625 401.984 759.789 403.393C764.954 404.802 770.587 405.505 776.69 405.505ZM776.69 225.938C787.722 225.938 798.226 228.226 808.202 232.803C818.178 237.38 826.98 243.718 834.609 251.816C842.238 259.913 848.282 269.596 852.742 280.863C857.201 292.13 859.432 304.338 859.432 317.482C859.432 330.627 857.202 342.832 852.742 354.099C848.282 365.366 842.237 375.048 834.609 383.146C826.98 391.244 818.178 397.582 808.202 402.159C798.227 406.736 787.723 409.026 776.69 409.026C765.657 409.026 755.154 406.736 745.177 402.159C735.202 397.582 726.399 391.244 718.77 383.146C711.141 375.048 705.097 365.366 700.637 354.099C696.177 342.831 693.947 330.626 693.947 317.482C693.947 304.338 696.177 292.13 700.637 280.863C705.097 269.596 711.141 259.913 718.77 251.816C726.399 243.718 735.202 237.38 745.177 232.803C755.154 228.226 765.658 225.938 776.69 225.938Z" fill="#7D8D19"></path><path d="M0.568359 474.547V431.683H21.3754V435.969H6.07635V450.971H18.9284V455.257H6.07635V474.546L0.568359 474.547ZM72.9584 474.547V431.683H78.4664V470.26H93.7654V474.546H72.9584V474.547ZM155.444 475.16C152.711 475.16 150.355 474.517 148.376 473.231C146.398 471.945 144.888 469.7 143.848 466.495C142.807 463.29 142.288 458.831 142.288 453.115C142.288 447.4 142.808 442.94 143.848 439.736C144.888 436.531 146.398 434.286 148.376 433C150.355 431.714 152.711 431.071 155.444 431.071C158.219 431.071 160.584 431.714 162.543 433C164.502 434.285 166 436.531 167.041 439.736C168.081 442.94 168.601 447.4 168.601 453.115C168.601 458.831 168.08 463.29 167.041 466.495C166 469.699 164.502 471.944 162.543 473.231C160.585 474.516 158.219 475.16 155.444 475.16ZM155.444 471.485C156.423 471.485 157.372 471.21 158.29 470.659C159.208 470.108 160.034 469.158 160.769 467.811C161.503 466.464 162.074 464.596 162.482 462.208C162.891 459.82 163.095 456.789 163.095 453.114C163.095 449.44 162.891 446.41 162.482 444.021C162.074 441.633 161.503 439.765 160.769 438.418C160.035 437.071 159.209 436.122 158.29 435.57C157.373 435.019 156.423 434.744 155.444 434.744C154.465 434.744 153.517 435.019 152.598 435.57C151.681 436.121 150.854 437.071 150.12 438.418C149.386 439.765 148.815 441.633 148.406 444.021C147.999 446.409 147.795 449.44 147.795 453.114C147.795 456.789 147.999 459.819 148.406 462.208C148.815 464.596 149.386 466.464 150.12 467.811C150.854 469.158 151.68 470.107 152.598 470.659C153.518 471.21 154.465 471.485 155.444 471.485ZM222.022 474.547V432.295C223.571 431.846 225.132 431.53 226.702 431.346C228.273 431.162 229.977 431.07 231.812 431.07C235.076 431.07 237.697 431.529 239.676 432.448C241.655 433.366 243.082 434.897 243.96 437.04C244.837 439.184 245.276 442.092 245.276 445.767C245.276 448.502 245.042 450.778 244.572 452.595C244.102 454.411 243.419 455.84 242.522 456.881C241.624 457.922 240.502 458.708 239.156 459.238L246.499 474.547H240.38L233.649 460.463H227.53V474.547H222.022ZM227.529 456.176H231.812C234.586 456.176 236.606 455.431 237.871 453.941C239.135 452.451 239.768 449.726 239.768 445.767C239.768 442.991 239.493 440.827 238.942 439.276C238.392 437.724 237.524 436.632 236.341 436C235.158 435.367 233.649 435.051 231.812 435.051H227.529V456.176ZM295.941 474.547L306.344 431.683H314.299L324.702 474.547H319.194L316.44 463.525H304.201L301.447 474.547C301.449 474.547 295.941 474.547 295.941 474.547ZM305.121 459.238H315.523L310.444 437.806H310.2L305.121 459.238ZM376.287 474.547V431.683H381.795V470.26H397.094V474.546H376.287V474.547ZM483.099 475.16C481.263 475.16 479.56 475.068 477.989 474.884C476.419 474.7 474.858 474.384 473.308 473.935V432.296C474.858 431.847 476.419 431.531 477.989 431.347C479.56 431.163 481.264 431.071 483.099 431.071C486.363 431.071 489.087 431.714 491.268 433C493.452 434.285 495.083 436.531 496.165 439.736C497.246 442.94 497.786 447.4 497.786 453.115C497.786 458.831 497.245 463.29 496.165 466.495C495.084 469.699 493.452 471.944 491.268 473.231C489.087 474.516 486.363 475.159 483.099 475.16ZM478.816 471.179H483.1C484.936 471.179 486.538 470.669 487.905 469.649C489.271 468.628 490.342 466.811 491.117 464.199C491.892 461.587 492.28 457.892 492.28 453.115C492.28 448.298 491.892 444.593 491.117 442.001C490.342 439.41 489.271 437.603 487.905 436.582C486.538 435.561 484.937 435.051 483.1 435.051H478.816V471.179ZM551.206 474.547V431.683H572.012V435.969H556.714V450.053H570.177V454.339H556.714V470.259H572.012V474.545H551.206V474.547ZM631.857 475.16C630.021 475.16 628.267 475.027 626.594 474.762C624.922 474.496 623.615 474.221 622.677 473.935V471.18H630.633C634.141 471.18 636.599 470.558 638.007 469.312C639.415 468.067 640.119 466.138 640.119 463.526C640.119 461.729 639.701 460.311 638.865 459.27C638.028 458.229 636.947 457.361 635.621 456.668C634.295 455.974 632.888 455.3 631.399 454.647C629.91 453.994 628.502 453.188 627.176 452.228C625.851 451.269 624.769 449.993 623.934 448.402C623.097 446.809 622.679 444.707 622.679 442.094C622.679 438.42 623.628 435.665 625.524 433.827C627.422 431.991 630.349 431.072 634.306 431.072C636.142 431.072 637.906 431.194 639.599 431.44C641.292 431.685 642.588 431.97 643.485 432.297V435.052H635.529C633.082 435.052 631.245 435.654 630.021 436.859C628.797 438.063 628.186 439.808 628.186 442.094C628.186 443.972 628.603 445.473 629.44 446.595C630.276 447.718 631.357 448.636 632.682 449.351C634.008 450.065 635.416 450.76 636.905 451.433C638.394 452.106 639.801 452.902 641.127 453.821C642.453 454.739 643.534 455.964 644.371 457.495C645.207 459.026 645.625 461.037 645.625 463.527C645.625 467.487 644.595 470.415 642.534 472.314C640.475 474.21 636.915 475.16 631.857 475.16ZM698.127 474.547V431.683H703.635V474.547H698.127ZM771.741 475.16C768.477 475.16 765.754 474.517 763.572 473.231C761.389 471.945 759.758 469.7 758.676 466.495C757.595 463.29 757.055 458.831 757.055 453.115C757.055 447.4 757.584 442.94 758.645 439.736C759.706 436.531 761.237 434.286 763.235 433C765.235 431.714 767.662 431.071 770.517 431.071C772.353 431.071 774.117 431.193 775.81 431.439C777.503 431.684 778.799 431.969 779.696 432.296V435.051H771.74C769.904 435.051 768.302 435.561 766.936 436.582C765.569 437.603 764.498 439.41 763.723 442.001C762.948 444.593 762.561 448.298 762.561 453.115C762.561 457.892 762.958 461.586 763.754 464.199C764.549 466.811 765.721 468.629 767.272 469.649C768.822 470.669 770.719 471.179 772.963 471.179H775.411V451.279H780.919V473.935C780.022 474.221 778.726 474.497 777.033 474.762C775.341 475.027 773.577 475.16 771.741 475.16ZM834.952 474.547V431.683H841.071L853.616 461.994H853.921V431.683H859.429V474.547H853.31L840.766 444.236H840.46V474.547H834.952Z" fill="#7D8D19"></path></svg>