<svg xmlns="http://www.w3.org/2000/svg" width="860" height="476" viewBox="0 0 860 476" fill="none"><g clip-path="url(#clip0_1979_138432)"><path fill-rule="evenodd" clip-rule="evenodd" d="M393.399 94.7013C388.8 101.569 382.556 107.73 374.287 113.013C366.925 88.7433 389.254 66.7613 405.001 51.1133C403.509 67.4653 403.058 80.2793 393.399 94.7013Z" fill="white"></path><path fill-rule="evenodd" clip-rule="evenodd" d="M338.489 94.7013C343.088 101.569 349.332 107.73 357.601 113.013C364.963 88.7433 342.634 66.7613 326.887 51.1133C328.379 67.4653 328.829 80.2793 338.489 94.7013Z" fill="white"></path><path fill-rule="evenodd" clip-rule="evenodd" d="M367.823 183.04C376.66 183.972 383.548 191.449 383.548 200.533C383.548 210.249 375.671 218.126 365.956 218.126C356.24 218.126 348.363 210.249 348.363 200.533C348.363 191.458 355.237 183.987 364.063 183.043V140.589C347.06 112.92 329.56 108.653 302.331 107.916C302.137 110.27 301.717 112.312 301.08 114.043C297.355 124.17 282.437 121.935 273.697 131.779C268.086 120.024 268.598 110.762 277.197 104.794C267.643 100.516 265.429 91.5088 268.772 78.9208C279.18 86.9808 293.428 82.0278 298.96 91.2918C300.576 93.9978 301.731 97.7048 302.406 102.445C302.429 102.965 302.444 103.473 302.452 103.972C329.966 104.743 347.31 108.461 364.063 133.497V39.5308C359.446 39.1598 355.708 38.2768 352.823 36.8998C341.641 31.5618 345.786 14.7428 335.462 3.69977C349.499 -1.46223 360.034 0.109766 365.943 10.5778C371.852 0.109766 382.387 -1.46223 396.424 3.69977C386.1 14.7428 390.245 31.5608 379.063 36.8998C376.178 38.2768 372.44 39.1608 367.823 39.5308V133.497C384.576 108.46 401.919 104.742 429.434 103.972C429.442 103.474 429.457 102.965 429.48 102.445C430.155 97.7048 431.31 93.9978 432.926 91.2918C438.458 82.0278 452.706 86.9808 463.114 78.9208C466.457 91.5088 464.242 100.516 454.689 104.794C463.288 110.762 463.8 120.024 458.189 131.779C449.449 121.935 434.531 124.17 430.806 114.043C430.169 112.312 429.75 110.269 429.555 107.916C402.326 108.653 384.826 112.92 367.823 140.589V183.04ZM365.943 193.962C369.559 193.962 372.489 196.893 372.489 200.508C372.489 204.123 369.558 207.054 365.943 207.054C362.328 207.054 359.397 204.123 359.397 200.508C359.397 196.893 362.327 193.962 365.943 193.962Z" fill="white"></path><path d="M153.727 398.462V401.982H100.913V387.898C97.1574 391.889 93.1664 395.41 88.9414 398.462C85.1864 401.044 80.7264 403.449 75.5624 405.679C70.3974 407.909 64.7644 409.025 58.6614 409.025C50.2114 409.025 42.4654 407.557 35.4234 404.624C28.3824 401.69 22.2794 397.699 17.1144 392.653C11.9504 387.606 7.90141 381.679 4.96741 374.872C2.03341 368.064 0.566406 360.672 0.566406 352.691C0.566406 344.71 2.03341 337.316 4.96741 330.508C7.90141 323.701 11.9504 317.775 17.1144 312.729C22.2794 307.682 28.3824 303.691 35.4234 300.757C42.4654 297.823 50.2124 296.356 58.6614 296.356C64.7644 296.356 70.3974 297.06 75.5624 298.468C80.7264 299.877 85.1864 301.519 88.9414 303.398C93.1664 305.51 97.1564 307.858 100.912 310.441V238.26C98.7994 236.617 96.3354 235.209 93.5184 234.035C90.9364 232.862 87.9434 231.806 84.5404 230.867C81.1364 229.928 77.2054 229.457 72.7454 229.457C65.9384 229.457 59.6594 230.572 53.9084 232.802C48.1574 235.032 42.9354 237.438 38.2404 240.02C32.8414 243.071 27.9124 246.592 23.4524 250.583V245.301C27.9124 241.78 32.8414 238.611 38.2404 235.794C42.9344 233.212 48.1574 230.924 53.9084 228.929C59.6594 226.934 65.9394 225.938 72.7454 225.938C81.4304 225.938 89.6454 227.64 97.3924 231.044C105.138 234.447 111.886 239.317 117.637 245.656C123.388 251.993 127.907 259.739 131.192 268.893C134.479 278.047 136.122 288.375 136.122 299.877V398.463L153.727 398.462ZM58.6624 405.505C64.7654 405.505 70.3984 404.33 75.5634 401.982C80.7274 399.634 85.1874 397.052 88.9424 394.236C93.1674 390.949 97.1574 387.078 100.913 382.618V315.719C97.1574 312.902 93.1664 310.32 88.9414 307.973C85.1864 306.095 80.7264 304.276 75.5624 302.515C70.3974 300.755 64.7644 299.876 58.6614 299.876C56.0794 299.876 53.4974 300.051 50.9154 300.403C48.3334 300.755 46.1034 301.166 44.2254 301.635C41.8774 302.34 39.6484 302.926 37.5354 303.396V401.63C37.5354 401.865 39.7064 402.569 44.0484 403.742C48.3934 404.918 53.2644 405.505 58.6624 405.505Z" fill="white"></path><path d="M278.32 225.938C290.761 225.938 300.033 228.577 306.135 233.858C312.238 239.14 315.289 245.301 315.289 252.343C315.289 258.446 313 263.787 308.423 268.364C303.846 272.941 298.506 275.23 292.403 275.23C286.3 275.23 280.96 272.941 276.383 268.364C271.806 263.787 269.517 258.446 269.517 252.343C269.517 246.944 271.512 242.31 275.503 238.436C279.493 234.563 284.539 232.157 290.642 231.218C289.234 230.984 287.826 230.748 286.417 230.514C285.244 230.28 283.894 230.043 282.368 229.809C280.842 229.574 279.492 229.457 278.319 229.457C272.216 229.457 266.583 230.866 261.419 233.682C256.255 236.499 251.795 239.552 248.039 242.837C243.814 246.828 239.824 251.17 236.068 255.865V398.463H253.673V401.984H183.254V398.463H200.858V236.499H183.254V232.979H236.068V250.583C239.823 246.123 243.814 242.015 248.039 238.259C251.795 235.208 256.255 232.391 261.419 229.809C266.584 227.227 272.217 225.938 278.32 225.938Z" fill="white"></path><path d="M401.153 398.463V401.984H330.734V398.463H348.338V236.501H330.734V232.98H383.548V398.463H401.153Z" fill="white"></path><path d="M487.017 409.024C475.515 409.024 465.774 407.029 457.793 403.038C449.812 399.047 443.24 394.587 438.076 389.659C431.973 384.026 427.162 377.57 423.641 370.294V363.252C427.162 371.232 431.973 378.274 438.076 384.377C443.24 389.776 449.812 394.647 457.793 398.989C465.774 403.331 475.515 405.502 487.017 405.502C498.518 405.502 507.849 401.922 515.008 394.763C522.168 387.604 525.747 378.273 525.747 366.772C525.747 360.903 523.458 355.974 518.881 351.983C514.304 347.993 508.553 344.237 501.628 340.716C494.703 337.195 487.193 333.674 479.094 330.153C470.996 326.632 463.484 322.466 456.56 317.654C449.636 312.842 443.885 307.091 439.307 300.401C434.73 293.711 432.441 285.32 432.441 275.227C432.441 269.124 433.909 263.08 436.842 257.094C439.776 251.108 444.001 245.827 449.517 241.25C455.033 236.673 461.723 232.976 469.587 230.159C477.45 227.343 486.194 225.934 495.818 225.934C503.329 225.934 510.195 227.107 516.415 229.455C522.635 231.803 528.034 234.795 532.611 238.433C537.188 242.071 540.709 246.062 543.174 250.404C545.639 254.746 546.871 258.913 546.871 262.903C546.871 269.006 544.876 274.053 540.885 278.043C536.894 282.034 531.848 284.029 525.745 284.029C519.642 284.029 514.595 282.034 510.605 278.043C506.615 274.053 504.619 269.006 504.619 262.903C504.619 257.504 506.614 252.927 510.605 249.171C514.596 245.415 519.642 243.538 525.745 243.538C526.684 243.538 527.623 243.655 528.562 243.89C529.5 244.125 530.439 244.36 531.378 244.595C532.317 244.829 533.373 245.065 534.547 245.299C531.731 242.483 528.327 239.901 524.336 237.553C521.05 235.675 517.001 233.856 512.189 232.096C507.377 230.335 501.919 229.455 495.817 229.455C483.377 229.455 473.811 232.683 467.121 239.138C460.431 245.592 457.087 254.102 457.087 264.664C457.087 270.533 459.376 275.462 463.953 279.452C468.53 283.442 474.281 287.199 481.206 290.72C488.13 294.241 495.641 297.762 503.74 301.283C511.838 304.803 519.35 308.97 526.274 313.782C533.198 318.594 538.949 324.403 543.527 331.211C548.104 338.018 550.393 346.35 550.393 356.209C550.393 363.251 548.925 369.941 545.991 376.278C543.058 382.616 538.832 388.249 533.317 393.179C527.801 398.108 521.11 401.981 513.247 404.798C505.384 407.616 496.641 409.024 487.017 409.024Z" fill="white"></path><path d="M671.46 377.336C669.582 386.256 665.474 393.768 659.137 399.87C652.799 405.973 645.171 409.024 636.252 409.024C630.853 409.024 625.629 407.733 620.582 405.151C615.535 402.569 611.076 398.872 607.203 394.06C603.33 389.248 600.161 383.38 597.696 376.455C595.231 369.531 593.999 361.608 593.999 352.689V236.5H576.395V232.979H593.999V190.728L629.209 159.039V232.979H657.377V236.5H629.209V403.744C629.678 404.213 630.382 404.566 631.321 404.801C633.199 405.27 634.843 405.505 636.252 405.505C644.232 405.505 651.039 402.806 656.672 397.407C662.305 392.008 666.062 385.318 667.939 377.337L671.46 377.336Z" fill="white"></path><path d="M776.688 405.505C782.791 405.505 788.424 404.801 793.588 403.393C798.752 401.985 803.212 400.34 806.967 398.462C811.193 396.35 815.183 394.002 818.939 391.42V243.542C815.184 240.96 811.193 238.611 806.967 236.499C803.212 234.621 798.752 232.979 793.588 231.57C788.424 230.161 782.791 229.457 776.688 229.457C770.585 229.457 764.952 230.162 759.787 231.57C754.623 232.979 750.164 234.62 746.408 236.499C742.183 238.611 738.193 240.96 734.437 243.542V391.42C738.192 394.002 742.183 396.35 746.408 398.462C750.164 400.34 754.623 401.984 759.787 403.393C764.952 404.802 770.585 405.505 776.688 405.505ZM776.688 225.938C787.72 225.938 798.224 228.225 808.2 232.802C818.176 237.379 826.978 243.717 834.607 251.815C842.236 259.912 848.28 269.596 852.74 280.863C857.199 292.13 859.43 304.337 859.43 317.481C859.43 330.626 857.2 342.831 852.74 354.098C848.28 365.365 842.235 375.047 834.607 383.145C826.978 391.243 818.176 397.581 808.2 402.158C798.225 406.735 787.721 409.025 776.688 409.025C765.655 409.025 755.152 406.735 745.175 402.158C735.2 397.581 726.397 391.243 718.768 383.145C711.139 375.047 705.095 365.365 700.635 354.098C696.175 342.83 693.945 330.625 693.945 317.481C693.945 304.337 696.175 292.13 700.635 280.863C705.095 269.596 711.139 259.912 718.768 251.815C726.397 243.717 735.2 237.379 745.175 232.802C755.152 228.225 765.656 225.938 776.688 225.938Z" fill="white"></path><path d="M0.566406 474.547V431.683H21.3734V435.969H6.0744V450.971H18.9264V455.257H6.0744V474.546L0.566406 474.547ZM72.9564 474.547V431.683H78.4644V470.26H93.7635V474.546H72.9564V474.547ZM155.442 475.16C152.709 475.16 150.353 474.517 148.374 473.231C146.396 471.945 144.886 469.7 143.846 466.495C142.805 463.29 142.286 458.831 142.286 453.115C142.286 447.4 142.806 442.94 143.846 439.736C144.886 436.531 146.396 434.286 148.374 433C150.353 431.714 152.709 431.071 155.442 431.071C158.217 431.071 160.582 431.714 162.541 433C164.5 434.285 165.998 436.531 167.039 439.736C168.079 442.94 168.599 447.4 168.599 453.115C168.599 458.831 168.078 463.29 167.039 466.495C165.998 469.699 164.5 471.944 162.541 473.231C160.583 474.516 158.217 475.16 155.442 475.16ZM155.442 471.485C156.421 471.485 157.37 471.21 158.288 470.659C159.206 470.108 160.032 469.158 160.767 467.811C161.501 466.464 162.072 464.596 162.48 462.208C162.889 459.82 163.093 456.789 163.093 453.114C163.093 449.44 162.889 446.41 162.48 444.021C162.072 441.633 161.501 439.765 160.767 438.418C160.033 437.071 159.207 436.122 158.288 435.57C157.371 435.019 156.421 434.744 155.442 434.744C154.463 434.744 153.515 435.019 152.596 435.57C151.679 436.121 150.852 437.071 150.118 438.418C149.384 439.765 148.813 441.633 148.404 444.021C147.997 446.409 147.793 449.44 147.793 453.114C147.793 456.789 147.997 459.819 148.404 462.208C148.813 464.596 149.384 466.464 150.118 467.811C150.852 469.158 151.678 470.107 152.596 470.659C153.516 471.21 154.463 471.485 155.442 471.485ZM222.02 474.547V432.295C223.569 431.846 225.13 431.53 226.7 431.346C228.271 431.162 229.975 431.07 231.81 431.07C235.074 431.07 237.695 431.529 239.674 432.448C241.653 433.366 243.08 434.897 243.958 437.04C244.835 439.184 245.274 442.092 245.274 445.767C245.274 448.502 245.04 450.778 244.57 452.595C244.1 454.411 243.417 455.84 242.52 456.881C241.622 457.922 240.5 458.708 239.154 459.238L246.497 474.547H240.378L233.647 460.463H227.528V474.547H222.02ZM227.527 456.176H231.81C234.584 456.176 236.604 455.431 237.869 453.941C239.133 452.451 239.766 449.726 239.766 445.767C239.766 442.991 239.491 440.827 238.94 439.276C238.39 437.724 237.522 436.632 236.339 436C235.156 435.367 233.647 435.051 231.81 435.051H227.527V456.176ZM295.939 474.547L306.342 431.683H314.297L324.7 474.547H319.192L316.438 463.525H304.199L301.445 474.547C301.447 474.547 295.939 474.547 295.939 474.547ZM305.119 459.238H315.521L310.442 437.806H310.198L305.119 459.238ZM376.285 474.547V431.683H381.793V470.26H397.092V474.546H376.285V474.547ZM483.097 475.16C481.261 475.16 479.558 475.068 477.987 474.884C476.417 474.7 474.856 474.384 473.306 473.935V432.296C474.856 431.847 476.417 431.531 477.987 431.347C479.558 431.163 481.262 431.071 483.097 431.071C486.361 431.071 489.085 431.714 491.266 433C493.45 434.285 495.081 436.531 496.163 439.736C497.244 442.94 497.784 447.4 497.784 453.115C497.784 458.831 497.243 463.29 496.163 466.495C495.082 469.699 493.45 471.944 491.266 473.231C489.085 474.516 486.361 475.159 483.097 475.16ZM478.814 471.179H483.098C484.934 471.179 486.536 470.669 487.903 469.649C489.269 468.628 490.34 466.811 491.115 464.199C491.89 461.587 492.278 457.892 492.278 453.115C492.278 448.298 491.89 444.593 491.115 442.001C490.34 439.41 489.269 437.603 487.903 436.582C486.536 435.561 484.935 435.051 483.098 435.051H478.814V471.179ZM551.204 474.547V431.683H572.01V435.969H556.712V450.053H570.175V454.339H556.712V470.259H572.01V474.545H551.204V474.547ZM631.855 475.16C630.019 475.16 628.265 475.027 626.592 474.762C624.92 474.496 623.613 474.221 622.675 473.935V471.18H630.631C634.139 471.18 636.597 470.558 638.005 469.312C639.413 468.067 640.117 466.138 640.117 463.526C640.117 461.729 639.699 460.311 638.863 459.27C638.026 458.229 636.945 457.361 635.619 456.668C634.293 455.974 632.886 455.3 631.397 454.647C629.908 453.994 628.5 453.188 627.174 452.228C625.849 451.269 624.767 449.993 623.932 448.402C623.095 446.809 622.677 444.707 622.677 442.094C622.677 438.42 623.626 435.665 625.522 433.827C627.42 431.991 630.347 431.072 634.304 431.072C636.14 431.072 637.904 431.194 639.597 431.44C641.29 431.685 642.586 431.97 643.483 432.297V435.052H635.527C633.08 435.052 631.243 435.654 630.019 436.859C628.795 438.063 628.184 439.808 628.184 442.094C628.184 443.972 628.601 445.473 629.438 446.595C630.274 447.718 631.355 448.636 632.68 449.351C634.006 450.065 635.414 450.76 636.903 451.433C638.392 452.106 639.799 452.902 641.125 453.821C642.451 454.739 643.532 455.964 644.369 457.495C645.205 459.026 645.623 461.037 645.623 463.527C645.623 467.487 644.593 470.415 642.532 472.314C640.473 474.21 636.913 475.16 631.855 475.16ZM698.125 474.547V431.683H703.633V474.547H698.125ZM771.739 475.16C768.475 475.16 765.752 474.517 763.57 473.231C761.387 471.945 759.756 469.7 758.674 466.495C757.593 463.29 757.053 458.831 757.053 453.115C757.053 447.4 757.582 442.94 758.643 439.736C759.704 436.531 761.235 434.286 763.233 433C765.233 431.714 767.66 431.071 770.515 431.071C772.351 431.071 774.115 431.193 775.808 431.439C777.501 431.684 778.797 431.969 779.694 432.296V435.051H771.738C769.902 435.051 768.3 435.561 766.934 436.582C765.567 437.603 764.496 439.41 763.721 442.001C762.946 444.593 762.559 448.298 762.559 453.115C762.559 457.892 762.956 461.586 763.752 464.199C764.547 466.811 765.719 468.629 767.27 469.649C768.82 470.669 770.717 471.179 772.961 471.179H775.409V451.279H780.917V473.935C780.02 474.221 778.724 474.497 777.031 474.762C775.339 475.027 773.575 475.16 771.739 475.16ZM834.95 474.547V431.683H841.069L853.614 461.994H853.919V431.683H859.427V474.547H853.308L840.764 444.236H840.458V474.547H834.95Z" fill="white"></path></g><defs><clipPath id="clip0_1979_138432"><rect width="860" height="476" fill="white"></rect></clipPath></defs></svg>